<svg width="1510" height="610" viewBox="0 0 1510 610" fill="none" xmlns="http://www.w3.org/2000/svg">
<rect width="1510" height="610" rx="50" fill="#00875F"/>
<path d="M272.969 191.25V305H250.234V191.25H272.969ZM335.859 220.469H355.703V305C355.703 312.708 354.219 319.01 351.25 323.906C348.333 328.854 344.245 332.474 338.984 334.766C333.776 337.109 327.682 338.281 320.703 338.281C318.047 338.281 315.052 337.917 311.719 337.188C308.438 336.458 305.26 335.339 302.188 333.828C299.115 332.37 296.589 330.599 294.609 328.516L302.031 313.359C304.062 315.391 306.719 317.109 310 318.516C313.281 319.974 316.51 320.703 319.688 320.703C322.76 320.703 325.312 320.208 327.344 319.219C329.427 318.281 330.99 316.667 332.031 314.375C333.125 312.083 333.672 309.01 333.672 305.156V240.078L335.859 220.469ZM288.672 265.703V260.078C288.672 253.203 289.323 247.188 290.625 242.031C291.927 236.875 293.802 232.578 296.25 229.141C298.698 225.703 301.693 223.151 305.234 221.484C308.828 219.766 312.839 218.906 317.266 218.906C321.901 218.906 325.781 219.922 328.906 221.953C332.031 223.932 334.557 226.719 336.484 230.312C338.464 233.906 339.974 238.151 341.016 243.047C342.109 247.943 342.943 253.307 343.516 259.141V267.266C342.943 272.786 342.005 277.943 340.703 282.734C339.453 287.526 337.786 291.693 335.703 295.234C333.62 298.776 331.068 301.562 328.047 303.594C325.026 305.573 321.38 306.562 317.109 306.562C312.734 306.562 308.776 305.677 305.234 303.906C301.745 302.135 298.75 299.531 296.25 296.094C293.802 292.604 291.927 288.333 290.625 283.281C289.323 278.177 288.672 272.318 288.672 265.703ZM310.625 260.078V265.703C310.625 269.661 310.859 273.073 311.328 275.938C311.849 278.75 312.63 281.068 313.672 282.891C314.714 284.661 316.042 285.99 317.656 286.875C319.323 287.708 321.276 288.125 323.516 288.125C326.693 288.125 329.219 287.396 331.094 285.938C333.021 284.427 334.427 282.37 335.312 279.766C336.25 277.109 336.771 274.062 336.875 270.625V255.859C336.823 252.995 336.484 250.417 335.859 248.125C335.286 245.833 334.479 243.88 333.438 242.266C332.396 240.651 331.042 239.401 329.375 238.516C327.76 237.63 325.859 237.188 323.672 237.188C321.432 237.188 319.505 237.63 317.891 238.516C316.276 239.401 314.922 240.781 313.828 242.656C312.786 244.479 311.979 246.849 311.406 249.766C310.885 252.63 310.625 256.068 310.625 260.078ZM393.516 238.516V305H371.562V220.469H392.109L393.516 238.516ZM390.234 259.844L384.375 260C384.271 253.646 384.87 247.943 386.172 242.891C387.526 237.839 389.427 233.542 391.875 230C394.375 226.406 397.344 223.672 400.781 221.797C404.271 219.87 408.151 218.906 412.422 218.906C415.703 218.906 418.698 219.479 421.406 220.625C424.167 221.771 426.536 223.594 428.516 226.094C430.495 228.594 432.031 231.927 433.125 236.094C434.219 240.208 434.766 245.26 434.766 251.25V305H412.812V251.094C412.812 247.448 412.448 244.635 411.719 242.656C410.99 240.625 409.896 239.219 408.438 238.438C406.979 237.604 405.156 237.188 402.969 237.188C400.885 237.188 399.036 237.786 397.422 238.984C395.807 240.13 394.453 241.719 393.359 243.75C392.318 245.781 391.51 248.177 390.938 250.938C390.417 253.698 390.182 256.667 390.234 259.844ZM473.75 220.469V305H451.797V220.469H473.75ZM450.781 198.594C450.781 195.208 451.849 192.422 453.984 190.234C456.172 187.995 459.089 186.875 462.734 186.875C466.432 186.875 469.349 187.995 471.484 190.234C473.62 192.422 474.688 195.208 474.688 198.594C474.688 201.927 473.594 204.714 471.406 206.953C469.271 209.141 466.406 210.234 462.812 210.234C459.115 210.234 456.172 209.141 453.984 206.953C451.849 204.714 450.781 201.927 450.781 198.594ZM527.969 220.469V236.953H484.844V220.469H527.969ZM494.766 199.609H516.562V279.219C516.562 281.562 516.797 283.359 517.266 284.609C517.734 285.859 518.438 286.745 519.375 287.266C520.365 287.734 521.667 287.969 523.281 287.969C524.375 287.969 525.391 287.917 526.328 287.812C527.266 287.656 527.969 287.5 528.438 287.344V304.453C526.719 305.13 524.896 305.651 522.969 306.016C521.094 306.38 518.854 306.562 516.25 306.562C511.875 306.562 508.073 305.729 504.844 304.062C501.667 302.396 499.193 299.74 497.422 296.094C495.651 292.396 494.766 287.552 494.766 281.562V199.609ZM574.219 306.562C568.438 306.562 563.307 305.677 558.828 303.906C554.401 302.135 550.651 299.583 547.578 296.25C544.505 292.865 542.161 288.776 540.547 283.984C538.932 279.193 538.125 273.724 538.125 267.578V260.625C538.125 253.75 538.906 247.734 540.469 242.578C542.031 237.37 544.245 232.995 547.109 229.453C549.974 225.911 553.49 223.281 557.656 221.562C561.875 219.792 566.641 218.906 571.953 218.906C577.266 218.906 581.927 219.792 585.938 221.562C590 223.281 593.359 225.885 596.016 229.375C598.672 232.812 600.677 237.083 602.031 242.188C603.385 247.292 604.062 253.229 604.062 260V270H547.422V254.609H582.578V252.656C582.578 249.219 582.214 246.354 581.484 244.062C580.755 241.719 579.609 239.974 578.047 238.828C576.484 237.682 574.401 237.109 571.797 237.109C569.609 237.109 567.76 237.552 566.25 238.438C564.74 239.323 563.542 240.703 562.656 242.578C561.771 244.453 561.12 246.901 560.703 249.922C560.286 252.891 560.078 256.458 560.078 260.625V267.578C560.078 271.484 560.417 274.766 561.094 277.422C561.771 280.026 562.76 282.161 564.062 283.828C565.417 285.443 567.057 286.615 568.984 287.344C570.911 288.021 573.151 288.359 575.703 288.359C579.557 288.359 583.021 287.682 586.094 286.328C589.219 284.922 591.875 283.021 594.062 280.625L602.812 293.906C601.302 295.885 599.219 297.865 596.562 299.844C593.906 301.823 590.729 303.438 587.031 304.688C583.333 305.938 579.062 306.562 574.219 306.562ZM695.312 191.25V305H672.578V191.25H695.312ZM723.594 191.25V210.234H644.844V191.25H723.594ZM758.75 220.469V305H736.797V220.469H758.75ZM735.781 198.594C735.781 195.208 736.849 192.422 738.984 190.234C741.172 187.995 744.089 186.875 747.734 186.875C751.432 186.875 754.349 187.995 756.484 190.234C758.62 192.422 759.688 195.208 759.688 198.594C759.688 201.927 758.594 204.714 756.406 206.953C754.271 209.141 751.406 210.234 747.812 210.234C744.115 210.234 741.172 209.141 738.984 206.953C736.849 204.714 735.781 201.927 735.781 198.594ZM798.125 237.969V305H776.172V220.469H796.797L798.125 237.969ZM795 259.844L788.984 260C788.88 254.062 789.401 248.594 790.547 243.594C791.693 238.594 793.411 234.245 795.703 230.547C798.047 226.849 800.99 223.984 804.531 221.953C808.073 219.922 812.214 218.906 816.953 218.906C820.026 218.906 822.865 219.479 825.469 220.625C828.073 221.719 830.339 223.464 832.266 225.859C834.193 228.203 835.677 231.276 836.719 235.078C837.76 238.828 838.281 243.333 838.281 248.594V305H816.406V251.25C816.406 247.5 816.042 244.635 815.312 242.656C814.583 240.625 813.542 239.219 812.188 238.438C810.833 237.604 809.167 237.188 807.188 237.188C805.104 237.188 803.281 237.76 801.719 238.906C800.156 240.052 798.88 241.667 797.891 243.75C796.953 245.781 796.224 248.177 795.703 250.938C795.234 253.698 795 256.667 795 259.844ZM836.172 257.656L828.281 258.672C828.177 253.099 828.672 247.917 829.766 243.125C830.859 238.281 832.552 234.062 834.844 230.469C837.135 226.823 840 223.984 843.438 221.953C846.927 219.922 850.964 218.906 855.547 218.906C858.984 218.906 862.109 219.479 864.922 220.625C867.734 221.771 870.13 223.62 872.109 226.172C874.141 228.672 875.677 231.979 876.719 236.094C877.812 240.208 878.359 245.208 878.359 251.094V305H856.406V251.172C856.406 247.37 856.042 244.453 855.312 242.422C854.583 240.391 853.542 239.01 852.188 238.281C850.833 237.552 849.219 237.188 847.344 237.188C845.469 237.188 843.828 237.708 842.422 238.75C841.068 239.792 839.922 241.25 838.984 243.125C838.047 244.948 837.344 247.109 836.875 249.609C836.406 252.057 836.172 254.74 836.172 257.656ZM928.906 306.562C923.125 306.562 917.995 305.677 913.516 303.906C909.089 302.135 905.339 299.583 902.266 296.25C899.193 292.865 896.849 288.776 895.234 283.984C893.62 279.193 892.812 273.724 892.812 267.578V260.625C892.812 253.75 893.594 247.734 895.156 242.578C896.719 237.37 898.932 232.995 901.797 229.453C904.661 225.911 908.177 223.281 912.344 221.562C916.562 219.792 921.328 218.906 926.641 218.906C931.953 218.906 936.615 219.792 940.625 221.562C944.688 223.281 948.047 225.885 950.703 229.375C953.359 232.812 955.365 237.083 956.719 242.188C958.073 247.292 958.75 253.229 958.75 260V270H902.109V254.609H937.266V252.656C937.266 249.219 936.901 246.354 936.172 244.062C935.443 241.719 934.297 239.974 932.734 238.828C931.172 237.682 929.089 237.109 926.484 237.109C924.297 237.109 922.448 237.552 920.938 238.438C919.427 239.323 918.229 240.703 917.344 242.578C916.458 244.453 915.807 246.901 915.391 249.922C914.974 252.891 914.766 256.458 914.766 260.625V267.578C914.766 271.484 915.104 274.766 915.781 277.422C916.458 280.026 917.448 282.161 918.75 283.828C920.104 285.443 921.745 286.615 923.672 287.344C925.599 288.021 927.839 288.359 930.391 288.359C934.245 288.359 937.708 287.682 940.781 286.328C943.906 284.922 946.562 283.021 948.75 280.625L957.5 293.906C955.99 295.885 953.906 297.865 951.25 299.844C948.594 301.823 945.417 303.438 941.719 304.688C938.021 305.938 933.75 306.562 928.906 306.562ZM993.281 239.297V305H971.406V220.469H992.031L993.281 239.297ZM1013.2 219.844L1012.89 241.641C1011.9 241.432 1010.7 241.276 1009.3 241.172C1007.94 241.068 1006.74 241.016 1005.7 241.016C1003.26 241.016 1001.17 241.406 999.453 242.188C997.734 242.917 996.302 244.036 995.156 245.547C994.062 247.005 993.229 248.828 992.656 251.016C992.083 253.203 991.745 255.677 991.641 258.438L987.5 256.875C987.5 251.354 987.917 246.302 988.75 241.719C989.635 237.083 990.938 233.073 992.656 229.688C994.375 226.25 996.432 223.594 998.828 221.719C1001.28 219.844 1004.04 218.906 1007.11 218.906C1008.15 218.906 1009.24 219.01 1010.39 219.219C1011.59 219.375 1012.53 219.583 1013.2 219.844Z" fill="white"/>
<path d="M267.578 407.695H252.383V401.562H267.578C270.521 401.562 272.904 401.094 274.727 400.156C276.549 399.219 277.878 397.917 278.711 396.25C279.57 394.583 280 392.682 280 390.547C280 388.594 279.57 386.758 278.711 385.039C277.878 383.32 276.549 381.94 274.727 380.898C272.904 379.831 270.521 379.297 267.578 379.297H254.141V430H246.602V373.125H267.578C271.875 373.125 275.508 373.867 278.477 375.352C281.445 376.836 283.698 378.893 285.234 381.523C286.771 384.128 287.539 387.109 287.539 390.469C287.539 394.115 286.771 397.227 285.234 399.805C283.698 402.383 281.445 404.349 278.477 405.703C275.508 407.031 271.875 407.695 267.578 407.695ZM303.203 394.375V430H295.977V387.734H303.008L303.203 394.375ZM316.406 387.5L316.367 394.219C315.768 394.089 315.195 394.01 314.648 393.984C314.128 393.932 313.529 393.906 312.852 393.906C311.185 393.906 309.714 394.167 308.438 394.688C307.161 395.208 306.081 395.938 305.195 396.875C304.31 397.812 303.607 398.932 303.086 400.234C302.591 401.51 302.266 402.917 302.109 404.453L300.078 405.625C300.078 403.073 300.326 400.677 300.82 398.438C301.341 396.198 302.135 394.219 303.203 392.5C304.271 390.755 305.625 389.401 307.266 388.438C308.932 387.448 310.911 386.953 313.203 386.953C313.724 386.953 314.323 387.018 315 387.148C315.677 387.253 316.146 387.37 316.406 387.5ZM320.391 409.336V408.438C320.391 405.391 320.833 402.565 321.719 399.961C322.604 397.331 323.88 395.052 325.547 393.125C327.214 391.172 329.232 389.661 331.602 388.594C333.971 387.5 336.628 386.953 339.57 386.953C342.539 386.953 345.208 387.5 347.578 388.594C349.974 389.661 352.005 391.172 353.672 393.125C355.365 395.052 356.654 397.331 357.539 399.961C358.424 402.565 358.867 405.391 358.867 408.438V409.336C358.867 412.383 358.424 415.208 357.539 417.812C356.654 420.417 355.365 422.695 353.672 424.648C352.005 426.576 349.987 428.086 347.617 429.18C345.273 430.247 342.617 430.781 339.648 430.781C336.68 430.781 334.01 430.247 331.641 429.18C329.271 428.086 327.24 426.576 325.547 424.648C323.88 422.695 322.604 420.417 321.719 417.812C320.833 415.208 320.391 412.383 320.391 409.336ZM327.617 408.438V409.336C327.617 411.445 327.865 413.438 328.359 415.312C328.854 417.161 329.596 418.802 330.586 420.234C331.602 421.667 332.865 422.799 334.375 423.633C335.885 424.44 337.643 424.844 339.648 424.844C341.628 424.844 343.359 424.44 344.844 423.633C346.354 422.799 347.604 421.667 348.594 420.234C349.583 418.802 350.326 417.161 350.82 415.312C351.341 413.438 351.602 411.445 351.602 409.336V408.438C351.602 406.354 351.341 404.388 350.82 402.539C350.326 400.664 349.57 399.01 348.555 397.578C347.565 396.12 346.315 394.974 344.805 394.141C343.32 393.307 341.576 392.891 339.57 392.891C337.591 392.891 335.846 393.307 334.336 394.141C332.852 394.974 331.602 396.12 330.586 397.578C329.596 399.01 328.854 400.664 328.359 402.539C327.865 404.388 327.617 406.354 327.617 408.438ZM395.312 387.734H401.875V429.102C401.875 432.826 401.12 436.003 399.609 438.633C398.099 441.263 395.99 443.255 393.281 444.609C390.599 445.99 387.5 446.68 383.984 446.68C382.526 446.68 380.807 446.445 378.828 445.977C376.875 445.534 374.948 444.766 373.047 443.672C371.172 442.604 369.596 441.159 368.32 439.336L372.109 435.039C373.88 437.174 375.729 438.659 377.656 439.492C379.609 440.326 381.536 440.742 383.438 440.742C385.729 440.742 387.708 440.312 389.375 439.453C391.042 438.594 392.331 437.318 393.242 435.625C394.18 433.958 394.648 431.901 394.648 429.453V397.031L395.312 387.734ZM366.211 409.336V408.516C366.211 405.286 366.589 402.357 367.344 399.727C368.125 397.07 369.232 394.792 370.664 392.891C372.122 390.99 373.88 389.531 375.938 388.516C377.995 387.474 380.312 386.953 382.891 386.953C385.547 386.953 387.865 387.422 389.844 388.359C391.849 389.271 393.542 390.612 394.922 392.383C396.328 394.128 397.435 396.237 398.242 398.711C399.049 401.185 399.609 403.984 399.922 407.109V410.703C399.635 413.802 399.076 416.589 398.242 419.062C397.435 421.536 396.328 423.646 394.922 425.391C393.542 427.135 391.849 428.477 389.844 429.414C387.839 430.326 385.495 430.781 382.812 430.781C380.286 430.781 377.995 430.247 375.938 429.18C373.906 428.112 372.161 426.615 370.703 424.688C369.245 422.76 368.125 420.495 367.344 417.891C366.589 415.26 366.211 412.409 366.211 409.336ZM373.438 408.516V409.336C373.438 411.445 373.646 413.424 374.062 415.273C374.505 417.122 375.169 418.75 376.055 420.156C376.966 421.562 378.125 422.669 379.531 423.477C380.938 424.258 382.617 424.648 384.57 424.648C386.966 424.648 388.945 424.141 390.508 423.125C392.07 422.109 393.307 420.768 394.219 419.102C395.156 417.435 395.885 415.625 396.406 413.672V404.258C396.12 402.826 395.677 401.445 395.078 400.117C394.505 398.763 393.75 397.565 392.812 396.523C391.901 395.456 390.768 394.609 389.414 393.984C388.06 393.359 386.471 393.047 384.648 393.047C382.669 393.047 380.964 393.464 379.531 394.297C378.125 395.104 376.966 396.224 376.055 397.656C375.169 399.062 374.505 400.703 374.062 402.578C373.646 404.427 373.438 406.406 373.438 408.516ZM420.078 394.375V430H412.852V387.734H419.883L420.078 394.375ZM433.281 387.5L433.242 394.219C432.643 394.089 432.07 394.01 431.523 393.984C431.003 393.932 430.404 393.906 429.727 393.906C428.06 393.906 426.589 394.167 425.312 394.688C424.036 395.208 422.956 395.938 422.07 396.875C421.185 397.812 420.482 398.932 419.961 400.234C419.466 401.51 419.141 402.917 418.984 404.453L416.953 405.625C416.953 403.073 417.201 400.677 417.695 398.438C418.216 396.198 419.01 394.219 420.078 392.5C421.146 390.755 422.5 389.401 424.141 388.438C425.807 387.448 427.786 386.953 430.078 386.953C430.599 386.953 431.198 387.018 431.875 387.148C432.552 387.253 433.021 387.37 433.281 387.5ZM463.32 422.773V401.016C463.32 399.349 462.982 397.904 462.305 396.68C461.654 395.43 460.664 394.466 459.336 393.789C458.008 393.112 456.367 392.773 454.414 392.773C452.591 392.773 450.99 393.086 449.609 393.711C448.255 394.336 447.188 395.156 446.406 396.172C445.651 397.188 445.273 398.281 445.273 399.453H438.047C438.047 397.943 438.438 396.445 439.219 394.961C440 393.477 441.12 392.135 442.578 390.938C444.062 389.714 445.833 388.75 447.891 388.047C449.974 387.318 452.292 386.953 454.844 386.953C457.917 386.953 460.625 387.474 462.969 388.516C465.339 389.557 467.188 391.133 468.516 393.242C469.87 395.326 470.547 397.943 470.547 401.094V420.781C470.547 422.188 470.664 423.685 470.898 425.273C471.159 426.862 471.536 428.229 472.031 429.375V430H464.492C464.128 429.167 463.841 428.06 463.633 426.68C463.424 425.273 463.32 423.971 463.32 422.773ZM464.57 404.375L464.648 409.453H457.344C455.286 409.453 453.451 409.622 451.836 409.961C450.221 410.273 448.867 410.755 447.773 411.406C446.68 412.057 445.846 412.878 445.273 413.867C444.701 414.831 444.414 415.964 444.414 417.266C444.414 418.594 444.714 419.805 445.312 420.898C445.911 421.992 446.81 422.865 448.008 423.516C449.232 424.141 450.729 424.453 452.5 424.453C454.714 424.453 456.667 423.984 458.359 423.047C460.052 422.109 461.393 420.964 462.383 419.609C463.398 418.255 463.945 416.94 464.023 415.664L467.109 419.141C466.927 420.234 466.432 421.445 465.625 422.773C464.818 424.102 463.737 425.378 462.383 426.602C461.055 427.799 459.466 428.802 457.617 429.609C455.794 430.391 453.737 430.781 451.445 430.781C448.581 430.781 446.068 430.221 443.906 429.102C441.771 427.982 440.104 426.484 438.906 424.609C437.734 422.708 437.148 420.586 437.148 418.242C437.148 415.977 437.591 413.984 438.477 412.266C439.362 410.521 440.638 409.076 442.305 407.93C443.971 406.758 445.977 405.872 448.32 405.273C450.664 404.674 453.281 404.375 456.172 404.375H464.57ZM489.102 396.133V430H481.836V387.734H488.711L489.102 396.133ZM487.617 407.266L484.258 407.148C484.284 404.258 484.661 401.589 485.391 399.141C486.12 396.667 487.201 394.518 488.633 392.695C490.065 390.872 491.849 389.466 493.984 388.477C496.12 387.461 498.594 386.953 501.406 386.953C503.385 386.953 505.208 387.24 506.875 387.812C508.542 388.359 509.987 389.232 511.211 390.43C512.435 391.628 513.385 393.164 514.062 395.039C514.74 396.914 515.078 399.18 515.078 401.836V430H507.852V402.188C507.852 399.974 507.474 398.203 506.719 396.875C505.99 395.547 504.948 394.583 503.594 393.984C502.24 393.359 500.651 393.047 498.828 393.047C496.693 393.047 494.909 393.424 493.477 394.18C492.044 394.935 490.898 395.977 490.039 397.305C489.18 398.633 488.555 400.156 488.164 401.875C487.799 403.568 487.617 405.365 487.617 407.266ZM515 403.281L510.156 404.766C510.182 402.448 510.56 400.221 511.289 398.086C512.044 395.951 513.125 394.049 514.531 392.383C515.964 390.716 517.721 389.401 519.805 388.438C521.888 387.448 524.271 386.953 526.953 386.953C529.219 386.953 531.224 387.253 532.969 387.852C534.74 388.451 536.224 389.375 537.422 390.625C538.646 391.849 539.57 393.424 540.195 395.352C540.82 397.279 541.133 399.57 541.133 402.227V430H533.867V402.148C533.867 399.779 533.49 397.943 532.734 396.641C532.005 395.312 530.964 394.388 529.609 393.867C528.281 393.32 526.693 393.047 524.844 393.047C523.255 393.047 521.849 393.32 520.625 393.867C519.401 394.414 518.372 395.169 517.539 396.133C516.706 397.07 516.068 398.151 515.625 399.375C515.208 400.599 515 401.901 515 403.281ZM576.992 422.773V401.016C576.992 399.349 576.654 397.904 575.977 396.68C575.326 395.43 574.336 394.466 573.008 393.789C571.68 393.112 570.039 392.773 568.086 392.773C566.263 392.773 564.661 393.086 563.281 393.711C561.927 394.336 560.859 395.156 560.078 396.172C559.323 397.188 558.945 398.281 558.945 399.453H551.719C551.719 397.943 552.109 396.445 552.891 394.961C553.672 393.477 554.792 392.135 556.25 390.938C557.734 389.714 559.505 388.75 561.562 388.047C563.646 387.318 565.964 386.953 568.516 386.953C571.589 386.953 574.297 387.474 576.641 388.516C579.01 389.557 580.859 391.133 582.188 393.242C583.542 395.326 584.219 397.943 584.219 401.094V420.781C584.219 422.188 584.336 423.685 584.57 425.273C584.831 426.862 585.208 428.229 585.703 429.375V430H578.164C577.799 429.167 577.513 428.06 577.305 426.68C577.096 425.273 576.992 423.971 576.992 422.773ZM578.242 404.375L578.32 409.453H571.016C568.958 409.453 567.122 409.622 565.508 409.961C563.893 410.273 562.539 410.755 561.445 411.406C560.352 412.057 559.518 412.878 558.945 413.867C558.372 414.831 558.086 415.964 558.086 417.266C558.086 418.594 558.385 419.805 558.984 420.898C559.583 421.992 560.482 422.865 561.68 423.516C562.904 424.141 564.401 424.453 566.172 424.453C568.385 424.453 570.339 423.984 572.031 423.047C573.724 422.109 575.065 420.964 576.055 419.609C577.07 418.255 577.617 416.94 577.695 415.664L580.781 419.141C580.599 420.234 580.104 421.445 579.297 422.773C578.49 424.102 577.409 425.378 576.055 426.602C574.727 427.799 573.138 428.802 571.289 429.609C569.466 430.391 567.409 430.781 565.117 430.781C562.253 430.781 559.74 430.221 557.578 429.102C555.443 427.982 553.776 426.484 552.578 424.609C551.406 422.708 550.82 420.586 550.82 418.242C550.82 415.977 551.263 413.984 552.148 412.266C553.034 410.521 554.31 409.076 555.977 407.93C557.643 406.758 559.648 405.872 561.992 405.273C564.336 404.674 566.953 404.375 569.844 404.375H578.242ZM624.609 373.125V430H617.07V373.125H624.609ZM664.609 387.734H671.172V429.102C671.172 432.826 670.417 436.003 668.906 438.633C667.396 441.263 665.286 443.255 662.578 444.609C659.896 445.99 656.797 446.68 653.281 446.68C651.823 446.68 650.104 446.445 648.125 445.977C646.172 445.534 644.245 444.766 642.344 443.672C640.469 442.604 638.893 441.159 637.617 439.336L641.406 435.039C643.177 437.174 645.026 438.659 646.953 439.492C648.906 440.326 650.833 440.742 652.734 440.742C655.026 440.742 657.005 440.312 658.672 439.453C660.339 438.594 661.628 437.318 662.539 435.625C663.477 433.958 663.945 431.901 663.945 429.453V397.031L664.609 387.734ZM635.508 409.336V408.516C635.508 405.286 635.885 402.357 636.641 399.727C637.422 397.07 638.529 394.792 639.961 392.891C641.419 390.99 643.177 389.531 645.234 388.516C647.292 387.474 649.609 386.953 652.188 386.953C654.844 386.953 657.161 387.422 659.141 388.359C661.146 389.271 662.839 390.612 664.219 392.383C665.625 394.128 666.732 396.237 667.539 398.711C668.346 401.185 668.906 403.984 669.219 407.109V410.703C668.932 413.802 668.372 416.589 667.539 419.062C666.732 421.536 665.625 423.646 664.219 425.391C662.839 427.135 661.146 428.477 659.141 429.414C657.135 430.326 654.792 430.781 652.109 430.781C649.583 430.781 647.292 430.247 645.234 429.18C643.203 428.112 641.458 426.615 640 424.688C638.542 422.76 637.422 420.495 636.641 417.891C635.885 415.26 635.508 412.409 635.508 409.336ZM642.734 408.516V409.336C642.734 411.445 642.943 413.424 643.359 415.273C643.802 417.122 644.466 418.75 645.352 420.156C646.263 421.562 647.422 422.669 648.828 423.477C650.234 424.258 651.914 424.648 653.867 424.648C656.263 424.648 658.242 424.141 659.805 423.125C661.367 422.109 662.604 420.768 663.516 419.102C664.453 417.435 665.182 415.625 665.703 413.672V404.258C665.417 402.826 664.974 401.445 664.375 400.117C663.802 398.763 663.047 397.565 662.109 396.523C661.198 395.456 660.065 394.609 658.711 393.984C657.357 393.359 655.768 393.047 653.945 393.047C651.966 393.047 650.26 393.464 648.828 394.297C647.422 395.104 646.263 396.224 645.352 397.656C644.466 399.062 643.802 400.703 643.359 402.578C642.943 404.427 642.734 406.406 642.734 408.516ZM689.375 396.758V430H682.148V387.734H688.984L689.375 396.758ZM687.656 407.266L684.648 407.148C684.674 404.258 685.104 401.589 685.938 399.141C686.771 396.667 687.943 394.518 689.453 392.695C690.964 390.872 692.76 389.466 694.844 388.477C696.953 387.461 699.284 386.953 701.836 386.953C703.919 386.953 705.794 387.24 707.461 387.812C709.128 388.359 710.547 389.245 711.719 390.469C712.917 391.693 713.828 393.281 714.453 395.234C715.078 397.161 715.391 399.518 715.391 402.305V430H708.125V402.227C708.125 400.013 707.799 398.242 707.148 396.914C706.497 395.56 705.547 394.583 704.297 393.984C703.047 393.359 701.51 393.047 699.688 393.047C697.891 393.047 696.25 393.424 694.766 394.18C693.307 394.935 692.044 395.977 690.977 397.305C689.935 398.633 689.115 400.156 688.516 401.875C687.943 403.568 687.656 405.365 687.656 407.266ZM734.219 387.734V430H726.953V387.734H734.219ZM726.406 376.523C726.406 375.352 726.758 374.362 727.461 373.555C728.19 372.747 729.258 372.344 730.664 372.344C732.044 372.344 733.099 372.747 733.828 373.555C734.583 374.362 734.961 375.352 734.961 376.523C734.961 377.643 734.583 378.607 733.828 379.414C733.099 380.195 732.044 380.586 730.664 380.586C729.258 380.586 728.19 380.195 727.461 379.414C726.758 378.607 726.406 377.643 726.406 376.523ZM763.516 387.734V393.281H740.664V387.734H763.516ZM748.398 377.461H755.625V419.531C755.625 420.964 755.846 422.044 756.289 422.773C756.732 423.503 757.305 423.984 758.008 424.219C758.711 424.453 759.466 424.57 760.273 424.57C760.872 424.57 761.497 424.518 762.148 424.414C762.826 424.284 763.333 424.18 763.672 424.102L763.711 430C763.138 430.182 762.383 430.352 761.445 430.508C760.534 430.69 759.427 430.781 758.125 430.781C756.354 430.781 754.727 430.43 753.242 429.727C751.758 429.023 750.573 427.852 749.688 426.211C748.828 424.544 748.398 422.305 748.398 419.492V377.461ZM789.531 430.781C786.589 430.781 783.919 430.286 781.523 429.297C779.154 428.281 777.109 426.862 775.391 425.039C773.698 423.216 772.396 421.055 771.484 418.555C770.573 416.055 770.117 413.32 770.117 410.352V408.711C770.117 405.273 770.625 402.214 771.641 399.531C772.656 396.823 774.036 394.531 775.781 392.656C777.526 390.781 779.505 389.362 781.719 388.398C783.932 387.435 786.224 386.953 788.594 386.953C791.615 386.953 794.219 387.474 796.406 388.516C798.62 389.557 800.43 391.016 801.836 392.891C803.242 394.74 804.284 396.927 804.961 399.453C805.638 401.953 805.977 404.688 805.977 407.656V410.898H774.414V405H798.75V404.453C798.646 402.578 798.255 400.755 797.578 398.984C796.927 397.214 795.885 395.755 794.453 394.609C793.021 393.464 791.068 392.891 788.594 392.891C786.953 392.891 785.443 393.242 784.062 393.945C782.682 394.622 781.497 395.638 780.508 396.992C779.518 398.346 778.75 400 778.203 401.953C777.656 403.906 777.383 406.159 777.383 408.711V410.352C777.383 412.357 777.656 414.245 778.203 416.016C778.776 417.76 779.596 419.297 780.664 420.625C781.758 421.953 783.073 422.995 784.609 423.75C786.172 424.505 787.943 424.883 789.922 424.883C792.474 424.883 794.635 424.362 796.406 423.32C798.177 422.279 799.727 420.885 801.055 419.141L805.43 422.617C804.518 423.997 803.359 425.312 801.953 426.562C800.547 427.812 798.815 428.828 796.758 429.609C794.727 430.391 792.318 430.781 789.531 430.781ZM849.297 402.852V408.789H830.234V402.852H849.297ZM877.305 373.125H896.133C900.404 373.125 904.01 373.776 906.953 375.078C909.922 376.38 912.174 378.307 913.711 380.859C915.273 383.385 916.055 386.497 916.055 390.195C916.055 392.799 915.521 395.182 914.453 397.344C913.411 399.479 911.901 401.302 909.922 402.812C907.969 404.297 905.625 405.404 902.891 406.133L900.781 406.953H883.086L883.008 400.82H896.367C899.076 400.82 901.328 400.352 903.125 399.414C904.922 398.451 906.276 397.161 907.188 395.547C908.099 393.932 908.555 392.148 908.555 390.195C908.555 388.008 908.125 386.094 907.266 384.453C906.406 382.812 905.052 381.549 903.203 380.664C901.38 379.753 899.023 379.297 896.133 379.297H884.844V430H877.305V373.125ZM910.547 430L896.719 404.219L904.57 404.18L918.594 429.531V430H910.547ZM923.594 409.336V408.438C923.594 405.391 924.036 402.565 924.922 399.961C925.807 397.331 927.083 395.052 928.75 393.125C930.417 391.172 932.435 389.661 934.805 388.594C937.174 387.5 939.831 386.953 942.773 386.953C945.742 386.953 948.411 387.5 950.781 388.594C953.177 389.661 955.208 391.172 956.875 393.125C958.568 395.052 959.857 397.331 960.742 399.961C961.628 402.565 962.07 405.391 962.07 408.438V409.336C962.07 412.383 961.628 415.208 960.742 417.812C959.857 420.417 958.568 422.695 956.875 424.648C955.208 426.576 953.19 428.086 950.82 429.18C948.477 430.247 945.82 430.781 942.852 430.781C939.883 430.781 937.214 430.247 934.844 429.18C932.474 428.086 930.443 426.576 928.75 424.648C927.083 422.695 925.807 420.417 924.922 417.812C924.036 415.208 923.594 412.383 923.594 409.336ZM930.82 408.438V409.336C930.82 411.445 931.068 413.438 931.562 415.312C932.057 417.161 932.799 418.802 933.789 420.234C934.805 421.667 936.068 422.799 937.578 423.633C939.089 424.44 940.846 424.844 942.852 424.844C944.831 424.844 946.562 424.44 948.047 423.633C949.557 422.799 950.807 421.667 951.797 420.234C952.786 418.802 953.529 417.161 954.023 415.312C954.544 413.438 954.805 411.445 954.805 409.336V408.438C954.805 406.354 954.544 404.388 954.023 402.539C953.529 400.664 952.773 399.01 951.758 397.578C950.768 396.12 949.518 394.974 948.008 394.141C946.523 393.307 944.779 392.891 942.773 392.891C940.794 392.891 939.049 393.307 937.539 394.141C936.055 394.974 934.805 396.12 933.789 397.578C932.799 399.01 932.057 400.664 931.562 402.539C931.068 404.388 930.82 406.354 930.82 408.438ZM988.047 424.844C989.766 424.844 991.354 424.492 992.812 423.789C994.271 423.086 995.469 422.122 996.406 420.898C997.344 419.648 997.878 418.229 998.008 416.641H1004.88C1004.75 419.141 1003.91 421.471 1002.34 423.633C1000.81 425.768 998.789 427.5 996.289 428.828C993.789 430.13 991.042 430.781 988.047 430.781C984.87 430.781 982.096 430.221 979.727 429.102C977.383 427.982 975.43 426.445 973.867 424.492C972.331 422.539 971.172 420.299 970.391 417.773C969.635 415.221 969.258 412.526 969.258 409.688V408.047C969.258 405.208 969.635 402.526 970.391 400C971.172 397.448 972.331 395.195 973.867 393.242C975.43 391.289 977.383 389.753 979.727 388.633C982.096 387.513 984.87 386.953 988.047 386.953C991.354 386.953 994.245 387.63 996.719 388.984C999.193 390.312 1001.13 392.135 1002.54 394.453C1003.97 396.745 1004.75 399.349 1004.88 402.266H998.008C997.878 400.521 997.383 398.945 996.523 397.539C995.69 396.133 994.544 395.013 993.086 394.18C991.654 393.32 989.974 392.891 988.047 392.891C985.833 392.891 983.971 393.333 982.461 394.219C980.977 395.078 979.792 396.25 978.906 397.734C978.047 399.193 977.422 400.82 977.031 402.617C976.667 404.388 976.484 406.198 976.484 408.047V409.688C976.484 411.536 976.667 413.359 977.031 415.156C977.396 416.953 978.008 418.581 978.867 420.039C979.753 421.497 980.938 422.669 982.422 423.555C983.932 424.414 985.807 424.844 988.047 424.844ZM1020.27 370V430H1013.01V370H1020.27ZM1046.09 387.734L1027.66 407.461L1017.34 418.164L1016.76 410.469L1024.14 401.641L1037.27 387.734H1046.09ZM1039.49 430L1024.41 409.844L1028.16 403.398L1048.01 430H1039.49ZM1070.31 430.781C1067.37 430.781 1064.7 430.286 1062.3 429.297C1059.93 428.281 1057.89 426.862 1056.17 425.039C1054.48 423.216 1053.18 421.055 1052.27 418.555C1051.35 416.055 1050.9 413.32 1050.9 410.352V408.711C1050.9 405.273 1051.41 402.214 1052.42 399.531C1053.44 396.823 1054.82 394.531 1056.56 392.656C1058.31 390.781 1060.29 389.362 1062.5 388.398C1064.71 387.435 1067.01 386.953 1069.38 386.953C1072.4 386.953 1075 387.474 1077.19 388.516C1079.4 389.557 1081.21 391.016 1082.62 392.891C1084.02 394.74 1085.07 396.927 1085.74 399.453C1086.42 401.953 1086.76 404.688 1086.76 407.656V410.898H1055.2V405H1079.53V404.453C1079.43 402.578 1079.04 400.755 1078.36 398.984C1077.71 397.214 1076.67 395.755 1075.23 394.609C1073.8 393.464 1071.85 392.891 1069.38 392.891C1067.73 392.891 1066.22 393.242 1064.84 393.945C1063.46 394.622 1062.28 395.638 1061.29 396.992C1060.3 398.346 1059.53 400 1058.98 401.953C1058.44 403.906 1058.16 406.159 1058.16 408.711V410.352C1058.16 412.357 1058.44 414.245 1058.98 416.016C1059.56 417.76 1060.38 419.297 1061.45 420.625C1062.54 421.953 1063.85 422.995 1065.39 423.75C1066.95 424.505 1068.72 424.883 1070.7 424.883C1073.26 424.883 1075.42 424.362 1077.19 423.32C1078.96 422.279 1080.51 420.885 1081.84 419.141L1086.21 422.617C1085.3 423.997 1084.14 425.312 1082.73 426.562C1081.33 427.812 1079.6 428.828 1077.54 429.609C1075.51 430.391 1073.1 430.781 1070.31 430.781ZM1112.89 387.734V393.281H1090.04V387.734H1112.89ZM1097.77 377.461H1105V419.531C1105 420.964 1105.22 422.044 1105.66 422.773C1106.11 423.503 1106.68 423.984 1107.38 424.219C1108.09 424.453 1108.84 424.57 1109.65 424.57C1110.25 424.57 1110.87 424.518 1111.52 424.414C1112.2 424.284 1112.71 424.18 1113.05 424.102L1113.09 430C1112.51 430.182 1111.76 430.352 1110.82 430.508C1109.91 430.69 1108.8 430.781 1107.5 430.781C1105.73 430.781 1104.1 430.43 1102.62 429.727C1101.13 429.023 1099.95 427.852 1099.06 426.211C1098.2 424.544 1097.77 422.305 1097.77 419.492V377.461ZM1145.98 418.789C1145.98 417.747 1145.74 416.784 1145.27 415.898C1144.83 414.987 1143.91 414.167 1142.5 413.438C1141.12 412.682 1139.04 412.031 1136.25 411.484C1133.91 410.99 1131.78 410.404 1129.88 409.727C1128.01 409.049 1126.41 408.229 1125.08 407.266C1123.78 406.302 1122.77 405.169 1122.07 403.867C1121.37 402.565 1121.02 401.042 1121.02 399.297C1121.02 397.63 1121.38 396.055 1122.11 394.57C1122.86 393.086 1123.92 391.771 1125.27 390.625C1126.65 389.479 1128.31 388.581 1130.23 387.93C1132.16 387.279 1134.31 386.953 1136.68 386.953C1140.07 386.953 1142.96 387.552 1145.35 388.75C1147.75 389.948 1149.58 391.549 1150.86 393.555C1152.14 395.534 1152.77 397.734 1152.77 400.156H1145.55C1145.55 398.984 1145.2 397.852 1144.49 396.758C1143.82 395.638 1142.81 394.714 1141.48 393.984C1140.18 393.255 1138.58 392.891 1136.68 392.891C1134.67 392.891 1133.05 393.203 1131.8 393.828C1130.57 394.427 1129.67 395.195 1129.1 396.133C1128.55 397.07 1128.28 398.06 1128.28 399.102C1128.28 399.883 1128.41 400.586 1128.67 401.211C1128.96 401.81 1129.45 402.37 1130.16 402.891C1130.86 403.385 1131.85 403.854 1133.12 404.297C1134.4 404.74 1136.03 405.182 1138.01 405.625C1141.47 406.406 1144.32 407.344 1146.56 408.438C1148.8 409.531 1150.47 410.872 1151.56 412.461C1152.66 414.049 1153.2 415.977 1153.2 418.242C1153.2 420.091 1152.81 421.784 1152.03 423.32C1151.28 424.857 1150.17 426.185 1148.71 427.305C1147.28 428.398 1145.56 429.258 1143.55 429.883C1141.58 430.482 1139.35 430.781 1136.88 430.781C1133.15 430.781 1130 430.117 1127.42 428.789C1124.84 427.461 1122.89 425.742 1121.56 423.633C1120.23 421.523 1119.57 419.297 1119.57 416.953H1126.84C1126.94 418.932 1127.51 420.508 1128.55 421.68C1129.6 422.826 1130.87 423.646 1132.38 424.141C1133.89 424.609 1135.39 424.844 1136.88 424.844C1138.85 424.844 1140.51 424.583 1141.84 424.062C1143.19 423.542 1144.22 422.826 1144.92 421.914C1145.62 421.003 1145.98 419.961 1145.98 418.789ZM1180.23 430.781C1177.29 430.781 1174.62 430.286 1172.23 429.297C1169.86 428.281 1167.81 426.862 1166.09 425.039C1164.4 423.216 1163.1 421.055 1162.19 418.555C1161.28 416.055 1160.82 413.32 1160.82 410.352V408.711C1160.82 405.273 1161.33 402.214 1162.34 399.531C1163.36 396.823 1164.74 394.531 1166.48 392.656C1168.23 390.781 1170.21 389.362 1172.42 388.398C1174.64 387.435 1176.93 386.953 1179.3 386.953C1182.32 386.953 1184.92 387.474 1187.11 388.516C1189.32 389.557 1191.13 391.016 1192.54 392.891C1193.95 394.74 1194.99 396.927 1195.66 399.453C1196.34 401.953 1196.68 404.688 1196.68 407.656V410.898H1165.12V405H1189.45V404.453C1189.35 402.578 1188.96 400.755 1188.28 398.984C1187.63 397.214 1186.59 395.755 1185.16 394.609C1183.72 393.464 1181.77 392.891 1179.3 392.891C1177.66 392.891 1176.15 393.242 1174.77 393.945C1173.39 394.622 1172.2 395.638 1171.21 396.992C1170.22 398.346 1169.45 400 1168.91 401.953C1168.36 403.906 1168.09 406.159 1168.09 408.711V410.352C1168.09 412.357 1168.36 414.245 1168.91 416.016C1169.48 417.76 1170.3 419.297 1171.37 420.625C1172.46 421.953 1173.78 422.995 1175.31 423.75C1176.88 424.505 1178.65 424.883 1180.62 424.883C1183.18 424.883 1185.34 424.362 1187.11 423.32C1188.88 422.279 1190.43 420.885 1191.76 419.141L1196.13 422.617C1195.22 423.997 1194.06 425.312 1192.66 426.562C1191.25 427.812 1189.52 428.828 1187.46 429.609C1185.43 430.391 1183.02 430.781 1180.23 430.781ZM1230.04 422.773V401.016C1230.04 399.349 1229.7 397.904 1229.02 396.68C1228.37 395.43 1227.38 394.466 1226.05 393.789C1224.73 393.112 1223.09 392.773 1221.13 392.773C1219.31 392.773 1217.71 393.086 1216.33 393.711C1214.97 394.336 1213.91 395.156 1213.12 396.172C1212.37 397.188 1211.99 398.281 1211.99 399.453H1204.77C1204.77 397.943 1205.16 396.445 1205.94 394.961C1206.72 393.477 1207.84 392.135 1209.3 390.938C1210.78 389.714 1212.55 388.75 1214.61 388.047C1216.69 387.318 1219.01 386.953 1221.56 386.953C1224.64 386.953 1227.34 387.474 1229.69 388.516C1232.06 389.557 1233.91 391.133 1235.23 393.242C1236.59 395.326 1237.27 397.943 1237.27 401.094V420.781C1237.27 422.188 1237.38 423.685 1237.62 425.273C1237.88 426.862 1238.26 428.229 1238.75 429.375V430H1231.21C1230.85 429.167 1230.56 428.06 1230.35 426.68C1230.14 425.273 1230.04 423.971 1230.04 422.773ZM1231.29 404.375L1231.37 409.453H1224.06C1222.01 409.453 1220.17 409.622 1218.55 409.961C1216.94 410.273 1215.59 410.755 1214.49 411.406C1213.4 412.057 1212.57 412.878 1211.99 413.867C1211.42 414.831 1211.13 415.964 1211.13 417.266C1211.13 418.594 1211.43 419.805 1212.03 420.898C1212.63 421.992 1213.53 422.865 1214.73 423.516C1215.95 424.141 1217.45 424.453 1219.22 424.453C1221.43 424.453 1223.39 423.984 1225.08 423.047C1226.77 422.109 1228.11 420.964 1229.1 419.609C1230.12 418.255 1230.66 416.94 1230.74 415.664L1233.83 419.141C1233.65 420.234 1233.15 421.445 1232.34 422.773C1231.54 424.102 1230.46 425.378 1229.1 426.602C1227.77 427.799 1226.18 428.802 1224.34 429.609C1222.51 430.391 1220.46 430.781 1218.16 430.781C1215.3 430.781 1212.79 430.221 1210.62 429.102C1208.49 427.982 1206.82 426.484 1205.62 424.609C1204.45 422.708 1203.87 420.586 1203.87 418.242C1203.87 415.977 1204.31 413.984 1205.2 412.266C1206.08 410.521 1207.36 409.076 1209.02 407.93C1210.69 406.758 1212.7 405.872 1215.04 405.273C1217.38 404.674 1220 404.375 1222.89 404.375H1231.29ZM1266.33 387.734V393.281H1243.48V387.734H1266.33ZM1251.21 377.461H1258.44V419.531C1258.44 420.964 1258.66 422.044 1259.1 422.773C1259.54 423.503 1260.12 423.984 1260.82 424.219C1261.52 424.453 1262.28 424.57 1263.09 424.57C1263.68 424.57 1264.31 424.518 1264.96 424.414C1265.64 424.284 1266.15 424.18 1266.48 424.102L1266.52 430C1265.95 430.182 1265.2 430.352 1264.26 430.508C1263.35 430.69 1262.24 430.781 1260.94 430.781C1259.17 430.781 1257.54 430.43 1256.05 429.727C1254.57 429.023 1253.39 427.852 1252.5 426.211C1251.64 424.544 1251.21 422.305 1251.21 419.492V377.461Z" fill="white"/>
</svg>
